<svg width="33" height="33" viewBox="0 0 33 33" fill="none" xmlns="http://www.w3.org/2000/svg">
<path d="M17.2857 23H11.7857C11.5773 23 11.3775 22.9063 11.2301 22.7396C11.0828 22.573 11 22.3468 11 22.1111V7.88889C11 7.65314 11.0828 7.42705 11.2301 7.26035C11.3775 7.09365 11.5773 7 11.7857 7H18.8571L22 10.5556V17.6667" stroke="black" stroke-width="3" stroke-linecap="round" stroke-linejoin="round"/>
<path d="M18 28H7.5C7.10218 28 6.72065 27.8478 6.43934 27.5769C6.15804 27.3061 6 26.9386 6 26.5555V3.44445C6 3.06136 6.15804 2.69396 6.43934 2.42307C6.72065 2.15218 7.10218 2 7.5 2H21L27 7.77777V19.3333" stroke="black" stroke-width="3" stroke-linecap="round" stroke-linejoin="round"/>
<path d="M31.9999 30.8513V24.7391C31.9999 23.7799 31.2198 23 30.2608 23H23.996H23.7391C22.7799 23 22 23.78 22 24.7391V26.5818V31.2609C22 32.2201 22.78 33 23.7391 33H28.643H30.2609C31.22 33 32 32.22 32 31.2609L31.9999 30.8513ZM28.5747 28.3069L30.1473 29.8795C30.2772 30.0095 30.3059 30.2 30.2372 30.359C30.2159 30.4077 30.1873 30.4548 30.1473 30.4947L29.4946 31.1473C29.3247 31.3173 29.0494 31.3173 28.8798 31.1473L27.3073 29.5747C27.1372 29.4046 26.862 29.4046 26.6925 29.5747L25.332 30.9352L25.1199 31.1473C24.9498 31.3173 24.6746 31.3173 24.5051 31.1473L23.8521 30.4947C23.682 30.3246 23.682 30.0495 23.8521 29.8799L24.0512 29.6808L25.4251 28.3069C25.5951 28.1369 25.5951 27.8616 25.4251 27.6921L23.8525 26.1195C23.6825 25.9494 23.6825 25.6743 23.8525 25.5047L24.5051 24.852C24.5191 24.8381 24.5369 24.8325 24.5521 24.8212C24.7225 24.6908 24.9642 24.6965 25.1203 24.852L26.6929 26.4247C26.863 26.5947 27.1382 26.5947 27.3077 26.4247L28.8803 24.852C29.0504 24.6821 29.3256 24.6821 29.4951 24.852L30.1477 25.5047C30.3178 25.6747 30.3178 25.9499 30.1477 26.1195L28.5751 27.6921C28.4051 27.8617 28.4051 28.1374 28.5747 28.3069Z" fill="#010002"/>
</svg>
