<svg width="33" height="33" viewBox="0 0 33 33" fill="none" xmlns="http://www.w3.org/2000/svg">
<path d="M16.5313 9.07495C16.5302 9.07495 16.5286 9.07495 16.5269 9.07495C15.9214 9.07495 15.4291 9.56498 15.4269 10.1706L15.3999 17.0797C15.3977 17.687 15.8883 18.1819 16.4955 18.1842C16.4967 18.1842 16.4983 18.1842 16.5 18.1842C16.5055 18.1842 16.5104 18.1826 16.516 18.1826C16.5204 18.1826 16.5243 18.1842 16.5281 18.1842C16.5655 18.1842 16.6034 18.1738 16.6409 18.1699C16.6711 18.1666 16.7013 18.1645 16.7316 18.1584C16.8443 18.1369 16.9559 18.104 17.0621 18.0451L25.7665 13.1985C26.2972 12.9032 26.4881 12.2332 26.1922 11.7026C25.8963 11.1718 25.2275 10.981 24.6956 11.2768L17.6067 15.2237L17.6265 10.1796C17.6297 9.57155 17.1391 9.07707 16.5313 9.07495Z" fill="#010002"/>
<path d="M33 16.5C33 7.38704 25.613 0 16.5 0C7.38704 0 0 7.38704 0 16.5C0 17.9333 0.183129 19.3237 0.526938 20.6492C0.793693 19.0955 2.14719 17.9085 3.77583 17.9085H3.93034C3.87867 17.446 3.85005 16.9763 3.85005 16.5C3.85005 9.52492 9.52492 3.85005 16.5 3.85005C23.4751 3.85005 29.1499 9.52492 29.1499 16.5C29.1499 23.4751 23.4751 29.1499 16.5 29.1499C16.104 29.1499 15.7124 29.129 15.3258 29.0933V29.4586C15.3258 30.9485 14.3325 32.2096 12.974 32.6183C14.1103 32.8658 15.2895 33 16.5001 33C25.613 33 33 25.613 33 16.5Z" fill="#010002"/>
<path d="M14.2257 28.9411V21.2093C14.2257 19.9959 13.2389 19.0093 12.0257 19.0093H4.10078H3.77578C2.56244 19.0093 1.57581 19.996 1.57581 21.2093V23.5402V29.4593C1.57581 30.6726 2.56254 31.6592 3.77578 31.6592H9.97921H12.0258C13.2391 31.6592 14.2258 30.6725 14.2258 29.4593L14.2257 28.9411ZM9.89275 25.7225L11.8821 27.7118C12.0465 27.8762 12.0828 28.1172 11.9959 28.3184C11.9689 28.38 11.9327 28.4395 11.8821 28.49L11.0565 29.3156C10.8415 29.5306 10.4933 29.5306 10.2788 29.3156L8.28949 27.3262C8.0744 27.1111 7.72625 27.1111 7.51177 27.3262L5.7908 29.0472L5.52243 29.3156C5.30735 29.5306 4.95919 29.5306 4.74471 29.3156L3.91866 28.49C3.70358 28.2749 3.70358 27.9268 3.91866 27.7123L4.17055 27.4604L5.90851 25.7225C6.12359 25.5074 6.12359 25.1592 5.90851 24.9447L3.91927 22.9554C3.70419 22.7403 3.70419 22.3922 3.91927 22.1777L4.74481 21.3521C4.76241 21.3345 4.78496 21.3274 4.80417 21.3131C5.01976 21.1481 5.32555 21.1553 5.52304 21.3521L7.51238 23.3415C7.72746 23.5566 8.07562 23.5566 8.29009 23.3415L10.2794 21.3521C10.4945 21.1371 10.8427 21.1371 11.0571 21.3521L11.8827 22.1777C12.0978 22.3928 12.0978 22.7409 11.8827 22.9554L9.89335 24.9447C9.67827 25.1593 9.67827 25.508 9.89275 25.7225Z" fill="#010002"/>
</svg>
