<svg width="33" height="33" viewBox="0 0 33 33" fill="none" xmlns="http://www.w3.org/2000/svg">
<path d="M18.5714 28H7.57143C7.15466 28 6.75496 27.8478 6.46026 27.5769C6.16556 27.3061 6 26.9386 6 26.5555V3.44445C6 3.06136 6.16556 2.69396 6.46026 2.42307C6.75496 2.15218 7.15466 2 7.57143 2H21.7143L28 7.77777V19.3333" stroke="black" stroke-width="2.5" stroke-linecap="round" stroke-linejoin="round"/>
<path d="M32.4999 30.4587V24.6522C32.4999 23.7409 31.7588 23 30.8477 23H24.8962H24.6522C23.7409 23 23 23.741 23 24.6522V26.4027V30.8479C23 31.7591 23.741 32.5 24.6522 32.5H29.3109H30.8478C31.759 32.5 32.5 31.759 32.5 30.8479L32.4999 30.4587ZM29.2459 28.0416L30.7399 29.5355C30.8634 29.659 30.8906 29.84 30.8254 29.9911C30.8051 30.0373 30.7779 30.082 30.7399 30.1199L30.1199 30.74C29.9584 30.9014 29.6969 30.9014 29.5358 30.74L28.0419 29.2459C27.8804 29.0844 27.6189 29.0844 27.4578 29.2459L26.1654 30.5384L25.9639 30.74C25.8023 30.9014 25.5409 30.9014 25.3798 30.74L24.7595 30.1199C24.5979 29.9584 24.5979 29.697 24.7595 29.5359L24.9486 29.3467L26.2538 28.0416C26.4153 27.88 26.4153 27.6185 26.2538 27.4574L24.7599 25.9635C24.5984 25.802 24.5984 25.5405 24.7599 25.3794L25.3799 24.7594C25.3931 24.7462 25.41 24.7409 25.4245 24.7301C25.5864 24.6062 25.816 24.6116 25.9643 24.7594L27.4583 26.2535C27.6198 26.415 27.8813 26.415 28.0423 26.2535L29.5363 24.7594C29.6978 24.598 29.9593 24.598 30.1203 24.7594L30.7404 25.3794C30.9019 25.541 30.9019 25.8024 30.7404 25.9635L29.2464 27.4574C29.0849 27.6186 29.0849 27.8805 29.2459 28.0416Z" fill="#010002"/>
</svg>
