<svg width="38" height="37" viewBox="0 0 38 37" fill="none" xmlns="http://www.w3.org/2000/svg">
<path d="M12.4559 2H18.3023C19.7266 2 20.4388 2 21.1091 2.15178C21.7033 2.28634 22.2712 2.50828 22.7925 2.80947C23.38 3.14917 23.8836 3.6242 24.8909 4.57425L35.75 14.8173M10.6114 14.9086H10.6308M14.4199 7.49315H12.0676C8.80616 7.49315 7.17542 7.49315 5.92971 8.09187C4.83393 8.61854 3.94305 9.45885 3.38473 10.4925C2.75 11.6675 2.75 13.2058 2.75 16.2822V18.501C2.75 19.8445 2.75 20.5163 2.9109 21.1486C3.05356 21.7091 3.28885 22.2448 3.60816 22.7365C3.96828 23.2907 4.47188 23.7657 5.47908 24.7158L11.6908 30.5752C13.9971 32.7505 15.1501 33.8383 16.4797 34.2457C17.6495 34.6042 18.9093 34.6042 20.0791 34.2457C21.4086 33.8383 22.5618 32.7505 24.868 30.5752L27.2203 28.3563C29.5264 26.1811 30.6796 25.0932 31.1116 23.8392C31.4916 22.7357 31.4916 21.5474 31.1116 20.444C30.6796 19.1899 29.5264 18.1021 27.2203 15.9268L21.0085 10.0674C20.0012 9.11732 19.4977 8.64235 18.9101 8.30263C18.3889 8.00142 17.8209 7.77947 17.2267 7.64493C16.5564 7.49315 15.8442 7.49315 14.4199 7.49315ZM11.582 14.9086C11.582 15.4141 11.1474 15.824 10.6114 15.824C10.0753 15.824 9.6408 15.4141 9.6408 14.9086C9.6408 14.4029 10.0753 13.993 10.6114 13.993C11.1474 13.993 11.582 14.4029 11.582 14.9086Z" stroke="black" stroke-width="4" stroke-linecap="round" stroke-linejoin="round"/>
<rect x="4.11365" y="22.4568" width="12" height="11.8434" rx="5.9217" fill="white"/>
<path d="M17.3681 32.0735V23.7488C17.3681 22.4424 16.2917 21.3801 14.9681 21.3801H6.32277H5.96822C4.64457 21.3801 3.56824 22.4425 3.56824 23.7488V26.2584V32.6314C3.56824 33.9377 4.64468 35 5.96822 35H12.7356H14.9683C16.2919 35 17.3682 33.9376 17.3682 32.6314L17.3681 32.0735ZM12.6413 28.608L14.8115 30.7499C14.9909 30.9269 15.0305 31.1864 14.9357 31.4031C14.9063 31.4694 14.8668 31.5334 14.8115 31.5878L13.9109 32.4767C13.6763 32.7082 13.2965 32.7082 13.0625 32.4767L10.8923 30.3348C10.6576 30.1032 10.2778 30.1032 10.0439 30.3348L8.16643 32.1877L7.87366 32.4767C7.63903 32.7082 7.25922 32.7082 7.02524 32.4767L6.12409 31.5878C5.88945 31.3562 5.88945 30.9814 6.12409 30.7505L6.39888 30.4793L8.29484 28.608C8.52948 28.3765 8.52948 28.0016 8.29484 27.7707L6.12475 25.6288C5.89012 25.3972 5.89012 25.0224 6.12475 24.7915L7.02535 23.9026C7.04455 23.8837 7.06915 23.876 7.09011 23.8606C7.32529 23.6829 7.65888 23.6906 7.87432 23.9026L10.0445 26.0445C10.2792 26.2761 10.659 26.2761 10.8929 26.0445L13.0631 23.9026C13.2978 23.6711 13.6776 23.6711 13.9116 23.9026L14.8122 24.7915C15.0468 25.023 15.0468 25.3979 14.8122 25.6288L12.642 27.7707C12.4073 28.0017 12.4073 28.3771 12.6413 28.608Z" fill="#010002"/>
</svg>
