<svg width="28" height="21" viewBox="0 0 28 21" fill="none" xmlns="http://www.w3.org/2000/svg">
<path d="M0.647522 11.0767C0.608785 10.9986 0.576124 10.9308 0.549468 10.8744C0.576124 10.8181 0.608785 10.7503 0.647522 10.6722C0.77674 10.4117 0.973335 10.0367 1.2399 9.58536C1.7736 8.68166 2.58464 7.47729 3.69273 6.27454C5.9094 3.86851 9.28559 1.49707 14 1.49707C18.7144 1.49707 22.0906 3.86851 24.3073 6.27454C25.4154 7.47729 26.2264 8.68166 26.7601 9.58536C27.0267 10.0367 27.2233 10.4117 27.3525 10.6722C27.3912 10.7503 27.4239 10.8181 27.4505 10.8744C27.4239 10.9308 27.3912 10.9986 27.3525 11.0767C27.2233 11.3371 27.0267 11.7122 26.7601 12.1635C26.2264 13.0672 25.4154 14.2716 24.3073 15.4743C22.0906 17.8804 18.7144 20.2518 14 20.2518C9.28559 20.2518 5.9094 17.8804 3.69273 15.4743C2.58464 14.2716 1.7736 13.0672 1.2399 12.1635C0.973335 11.7122 0.77674 11.3371 0.647522 11.0767Z" stroke="#FB8B2B" stroke-linecap="square"/>
<path d="M17.7 10.8744C17.7 13.4049 15.9705 15.3131 14 15.3131C12.0294 15.3131 10.3 13.4049 10.3 10.8744C10.3 8.34397 12.0294 6.43573 14 6.43573C15.9705 6.43573 17.7 8.34397 17.7 10.8744Z" stroke="#FB8B2B" stroke-linecap="square"/>
<rect x="0.357943" width="27.3361" height="0.49702" transform="matrix(0.720178 -0.69379 0.720178 0.69379 4.10016 20.3189)" stroke="#FB8B2B" stroke-width="0.49702"/>
</svg>
