<svg width="50" height="50" viewBox="0 0 50 50" fill="none" xmlns="http://www.w3.org/2000/svg">
<path d="M46.8971 20.2669L42.8864 19.3778C42.5739 18.3777 42.1646 17.4214 41.6958 16.501L43.866 12.8867C44.6753 11.5913 45.0847 9.68811 43.866 8.46616L41.6552 6.25664C40.4365 5.03625 38.3773 5.25658 37.1336 6.11913L33.6166 8.3599C32.7042 7.88643 31.7496 7.48015 30.759 7.15982L29.8591 3.10019C29.5903 1.61104 28.2889 0 26.5624 0H23.4376C21.7127 0 20.655 1.63604 20.3128 3.1252L19.3097 7.13638C18.2504 7.47391 17.2349 7.90518 16.2662 8.41615L12.6601 6.11913C11.418 5.25658 9.35723 5.03782 8.13855 6.25664L5.92775 8.46616C4.70752 9.68811 5.11687 11.5914 5.92775 12.8852L8.21042 16.6901C7.78233 17.5527 7.40266 18.4449 7.10893 19.3778L3.09981 20.2669C1.61084 20.5341 0 21.8373 0 23.5624V26.6876C0 28.4143 1.63584 29.4722 3.1248 29.8128L7.18393 30.8269C7.4636 31.6879 7.81514 32.5145 8.21199 33.3161L5.92775 37.1258C5.11843 38.4196 4.70908 40.3244 5.92775 41.5448L8.13855 43.7543C9.35723 44.9762 11.4165 44.7544 12.6601 43.8934L16.274 41.5901C17.2474 42.1042 18.2692 42.5402 19.3363 42.8761L20.3362 46.8748C20.6784 48.364 21.7361 50 23.461 50H26.5858C28.3123 50 29.6138 48.3874 29.8825 46.8982L30.784 42.8292C31.7652 42.512 32.7058 42.112 33.6088 41.6448L37.1336 43.8918C38.3773 44.7544 40.4365 44.9731 41.6568 43.7527L43.8676 41.5432C45.0862 40.3213 44.6769 38.418 43.8676 37.1242L41.6958 33.5037C42.1317 32.6458 42.5098 31.7535 42.8145 30.8254L46.8752 29.8112C48.3642 29.469 50 28.4127 50 26.686V23.5608C50 21.8357 48.3892 20.5325 46.8986 20.2638L46.8971 20.2669ZM46.8752 26.4688C46.7424 26.5642 46.4924 26.6954 46.1752 26.7689L40.3819 28.2158L39.8444 29.8581C39.6022 30.5988 39.2882 31.3488 38.9116 32.0895L38.1273 33.6302L41.188 38.7352C41.3834 39.0478 41.474 39.3275 41.5021 39.4931L39.446 41.5463C39.2475 41.4838 39.0226 41.4026 38.9132 41.3276L33.7698 38.0477L32.1714 38.8743C31.4012 39.2743 30.6106 39.6056 29.8231 39.8603L28.1201 40.4103L26.8327 46.2279C26.7733 46.5388 26.6061 46.7904 26.4921 46.8795H23.6798C23.5845 46.7467 23.4532 46.4967 23.3814 46.1795L21.9424 40.4275L20.2769 39.8994C19.4191 39.629 18.5629 39.2681 17.7301 38.8306L16.124 37.9821L10.979 41.262C10.7681 41.4042 10.5431 41.4854 10.34 41.4854L8.29167 39.4915C8.31979 39.329 8.40416 39.0634 8.57446 38.7899L11.7696 33.4646L11.0087 31.9332C10.654 31.2113 10.3728 30.5347 10.1541 29.8628L9.61815 28.219L3.88257 26.7845C3.52165 26.7032 3.26073 26.5673 3.1248 26.472V23.5655C3.1248 23.5655 3.12793 23.5671 3.13262 23.5671C3.18574 23.5671 3.44197 23.3843 3.65602 23.3452L9.5494 22.0404L10.09 20.3169C10.3103 19.6153 10.6103 18.884 11.0087 18.0824L11.7696 16.551L8.60727 11.2804C8.41197 10.9663 8.31979 10.6866 8.29323 10.5225L10.3478 8.46928C10.5478 8.53335 10.7712 8.6146 10.879 8.68804L16.1193 12.0289L17.7239 11.1819C18.5473 10.7475 19.4004 10.3897 20.2581 10.1163L21.9189 9.5881L23.3439 3.88618C23.4267 3.52522 23.5595 3.26427 23.6563 3.12832H26.5608C26.539 3.15957 26.7405 3.43303 26.7827 3.65804L28.0951 9.58654L29.7966 10.1366C30.595 10.3944 31.3949 10.7304 32.1761 11.1351L33.7744 11.9664L38.8116 8.75836C39.0226 8.6146 39.2475 8.53491 39.4507 8.53491L41.5021 10.5288C41.4755 10.6913 41.3896 10.9601 41.2193 11.232L38.1257 16.3823L38.9148 17.9261C39.3413 18.759 39.6647 19.5403 39.9069 20.3153L40.4475 22.0404L46.2237 23.3218C46.5737 23.3858 46.8455 23.589 46.9018 23.6984L46.8752 26.4688ZM25.0203 15.6104C19.8316 15.6104 15.61 19.8247 15.61 25.0016C15.61 30.1784 19.8316 34.3928 25.0203 34.3928C30.209 34.3928 34.4307 30.1784 34.4307 25.0031C34.4307 19.8262 30.209 15.6119 25.0203 15.6119V15.6104ZM25 31.252C21.5549 31.252 18.7504 28.4487 18.7504 25.0016C18.7504 21.5545 21.5533 18.7512 25 18.7512C28.4467 18.7512 31.2496 21.5545 31.2496 25.0016C31.2496 28.4487 28.4467 31.252 25 31.252Z" fill="black"/>
</svg>
