<svg width="28" height="20" viewBox="0 0 28 20" fill="none" xmlns="http://www.w3.org/2000/svg">
<path d="M0.648605 10.2097C0.60875 10.1283 0.57532 10.0581 0.548237 10C0.57532 9.94193 0.60875 9.87166 0.648605 9.79032C0.777905 9.52644 0.974594 9.14658 1.24126 8.68944C1.77518 7.77415 2.58646 6.55447 3.6948 5.33652C5.91231 2.8997 9.28798 0.5 14 0.5C18.712 0.5 22.0877 2.8997 24.3052 5.33652C25.4135 6.55447 26.2248 7.77415 26.7587 8.68944C27.0254 9.14658 27.2221 9.52644 27.3514 9.79032C27.3912 9.87166 27.4247 9.94193 27.4518 10C27.4247 10.0581 27.3912 10.1283 27.3514 10.2097C27.2221 10.4736 27.0254 10.8534 26.7587 11.3106C26.2248 12.2258 25.4135 13.4455 24.3052 14.6635C22.0877 17.1003 18.712 19.5 14 19.5C9.28798 19.5 5.91231 17.1003 3.6948 14.6635C2.58646 13.4455 1.77518 12.2258 1.24126 11.3106C0.974594 10.8534 0.777905 10.4736 0.648605 10.2097Z" stroke="#FB8B2B" stroke-linecap="square"/>
<path d="M17.7 10C17.7 12.5705 15.9653 14.5 14 14.5C12.0347 14.5 10.3 12.5705 10.3 10C10.3 7.4295 12.0347 5.5 14 5.5C15.9653 5.5 17.7 7.4295 17.7 10Z" stroke="#FB8B2B" stroke-linecap="square"/>
</svg>
