<svg width="33" height="33" viewBox="0 0 33 33" fill="none" xmlns="http://www.w3.org/2000/svg">
<g clip-path="url(#clip0_208_34)">
<path d="M1.03125 16.5C1.03125 7.95685 7.95685 1.03125 16.5 1.03125C25.0432 1.03125 31.9688 7.95685 31.9688 16.5C31.9688 25.0432 25.0432 31.9688 16.5 31.9688C7.95685 31.9688 1.03125 25.0432 1.03125 16.5Z" stroke="black" stroke-width="2"/>
<path d="M11 18.0812C11.8733 18.0812 12.5812 17.3732 12.5812 16.5C12.5812 15.6267 11.8733 14.9187 11 14.9187C10.1266 14.9187 9.4187 15.6267 9.4187 16.5C9.4187 17.3732 10.1266 18.0812 11 18.0812Z" fill="black" stroke="black" stroke-linecap="round" stroke-linejoin="round"/>
<path d="M22 18.1156C22.8732 18.1156 23.5812 17.4076 23.5812 16.5344C23.5812 15.6611 22.8732 14.9531 22 14.9531C21.1267 14.9531 20.4187 15.6611 20.4187 16.5344C20.4187 17.4076 21.1267 18.1156 22 18.1156Z" fill="black" stroke="black" stroke-linecap="round" stroke-linejoin="round"/>
<path d="M16.5 18.1156C17.3732 18.1156 18.0812 17.4076 18.0812 16.5344C18.0812 15.6611 17.3732 14.9531 16.5 14.9531C15.6267 14.9531 14.9187 15.6611 14.9187 16.5344C14.9187 17.4076 15.6267 18.1156 16.5 18.1156Z" fill="black" stroke="black" stroke-linecap="round" stroke-linejoin="round"/>
</g>
<defs>
<clipPath id="clip0_208_34">
<rect width="33" height="33" fill="white"/>
</clipPath>
</defs>
</svg>
