<svg width="33" height="33" viewBox="0 0 33 33" fill="none" xmlns="http://www.w3.org/2000/svg">
<path d="M15 25H8C7.73479 25 7.48043 24.8946 7.29289 24.7071C7.10536 24.5196 7 24.2652 7 24V8C7 7.73479 7.10536 7.48043 7.29289 7.29289C7.48043 7.10536 7.73479 7 8 7H17L21 11V19" stroke="black" stroke-width="3" stroke-linecap="round" stroke-linejoin="round"/>
<path d="M15.7143 31H3.71429C3.25963 31 2.8236 30.8302 2.5021 30.5281C2.18061 30.226 2 29.8162 2 29.3889V3.61111C2 3.18382 2.18061 2.77403 2.5021 2.47188C2.8236 2.16974 3.25963 2 3.71429 2H19.1429L26 8.44444V21.3333" stroke="black" stroke-width="3" stroke-linecap="round" stroke-linejoin="round"/>
<path d="M21 27.3951L24.3951 30.7901L31.1852 24" stroke="black" stroke-width="3" stroke-linecap="round" stroke-linejoin="round"/>
</svg>
