<svg width="56" height="56" viewBox="0 0 56 56" fill="none" xmlns="http://www.w3.org/2000/svg">
<path d="M17.7059 3H26.5641C28.7221 3 29.8012 3 30.8168 3.2334C31.7171 3.44032 32.5776 3.78162 33.3674 4.24478C34.2576 4.76716 35.0206 5.49764 36.5468 6.95861L53 22.7101M14.9112 22.8504H14.9406M20.6817 11.4472H17.1176C12.176 11.4472 9.70518 11.4472 7.81774 12.3679C6.15747 13.1778 4.80765 14.47 3.96171 16.0595C3 17.8664 3 20.2319 3 24.9627V28.3748C3 30.4407 3 31.4738 3.24379 32.4461C3.45994 33.308 3.81644 34.1319 4.30024 34.8879C4.84588 35.7402 5.60891 36.4706 7.13497 37.9317L16.5467 46.9421C20.041 50.2872 21.7881 51.96 23.8026 52.5865C25.575 53.1378 27.4838 53.1378 29.2562 52.5865C31.2706 51.96 33.0179 50.2872 36.5121 46.9421L40.0762 43.53C43.5703 40.1849 45.3176 38.5121 45.9721 36.5836C46.5479 34.8868 46.5479 33.0594 45.9721 31.3626C45.3176 29.4341 43.5703 27.7613 40.0762 24.4162L30.6644 15.4058C29.1382 13.9448 28.3753 13.2144 27.485 12.692C26.6953 12.2288 25.8347 11.8875 24.9344 11.6806C23.9188 11.4472 22.8397 11.4472 20.6817 11.4472ZM16.3818 22.8504C16.3818 23.6278 15.7234 24.2582 14.9112 24.2582C14.099 24.2582 13.4406 23.6278 13.4406 22.8504C13.4406 22.0728 14.099 21.4425 14.9112 21.4425C15.7234 21.4425 16.3818 22.0728 16.3818 22.8504Z" stroke="black" stroke-width="5.33333" stroke-linecap="round" stroke-linejoin="round"/>
</svg>
