<svg width="33" height="33" viewBox="0 0 33 33" fill="none" xmlns="http://www.w3.org/2000/svg">
<g clip-path="url(#clip0_217_39)">
<path fill-rule="evenodd" clip-rule="evenodd" d="M16.5 31.0588C8.47129 31.0588 1.94117 24.5287 1.94117 16.5C1.94117 8.47129 8.47129 1.94117 16.5 1.94117C24.5287 1.94117 31.0588 8.47129 31.0588 16.5C31.0588 24.5287 24.5287 31.0588 16.5 31.0588ZM16.5 0C7.40171 0 0 7.40171 0 16.5C0 25.5983 7.40171 33 16.5 33C25.5983 33 33 25.5983 33 16.5C33 7.40171 25.5983 0 16.5 0ZM14.684 19.9027L10.0213 15.24L8.64891 16.6124L14.684 22.6475L24.9975 12.334L23.6251 10.9616L14.684 19.9027Z" fill="black"/>
</g>
<defs>
<clipPath id="clip0_217_39">
<rect width="33" height="33" fill="white"/>
</clipPath>
</defs>
</svg>
