<svg width="41" height="41" viewBox="0 0 41 41" fill="none" xmlns="http://www.w3.org/2000/svg">
<path d="M20.6667 2H12.6667C7.63835 2 5.12419 2 3.56211 3.56211C2 5.12419 2 7.63835 2 12.6667V28.6667C2 33.6949 2 36.2091 3.56211 37.7712C5.12419 39.3333 7.63835 39.3333 12.6667 39.3333H28.6667C33.6949 39.3333 36.2091 39.3333 37.7712 37.7712C39.3333 36.2091 39.3333 33.6949 39.3333 28.6667V20.6667M13.5173 22.5096L29.3296 6.87475C30.5909 5.62776 32.5984 5.55899 33.9419 6.71669C35.4216 7.99168 35.5261 10.248 34.1707 11.6542L18.6211 27.7872L12.6667 28.6667L13.5173 22.5096Z" stroke="black" stroke-width="2.66667" stroke-linecap="round" stroke-linejoin="round"/>
</svg>
